<svg width="93" height="31" viewBox="0 0 93 31" fill="none" xmlns="http://www.w3.org/2000/svg">
<g clip-path="url(#clip0_3545_11)">
<path d="M7.43709 8.85791C3.69035 8.85791 0.599365 11.609 0.599365 15.4755C0.599365 19.3418 3.69035 22.0932 7.43709 22.0932C10.0036 22.0932 12.2704 20.7633 13.4319 18.7128L11.1089 17.4361C10.4345 18.7666 9.06691 19.5757 7.43709 19.5757C5.09537 19.5757 3.31584 17.9033 3.31584 15.4755C3.31584 13.0478 5.09537 11.3753 7.43709 11.3753C9.06691 11.3753 10.4345 12.1847 11.1089 13.5155L13.4319 12.2387C12.2704 10.1888 10.0036 8.85791 7.43709 8.85791ZM16.7096 9.1815V21.7691H19.3326V16.3746H25.8891V21.7696H28.5116V9.1815H25.8891V13.8571H19.3326V9.1815H16.7096ZM36.9417 9.1815L31.134 21.7696H34.0005L35.2929 18.8925H42.1489L43.4418 21.7696H46.3078L40.5011 9.1815H36.9417ZM48.9307 9.1815V21.7696H51.3655V11.861L58.3909 21.7696H60.7326V9.1815H58.2973V17.5259L52.3966 9.1815H48.9307ZM65.7899 9.1815V21.7696L75.5317 21.7701V19.4323H68.2252V16.5551H74.22V14.2168H68.2252V11.5193H75.1565V9.18151L65.7899 9.1815ZM79.7465 9.1815V21.7696V21.7701H89.3007V19.2526H82.3694V9.18151L79.7465 9.1815ZM38.7211 11.2494L41.1005 16.5546H36.3417L38.7211 11.2494Z" fill="black"/>
</g>
<defs>
<clipPath id="clip0_3545_11">
<rect width="89.9" height="14.3859" fill="white" transform="translate(0 8.28271)"/>
</clipPath>
</defs>
</svg>
