<svg width="14" height="14" viewBox="0 0 14 14" fill="none" xmlns="http://www.w3.org/2000/svg">
<path fill-rule="evenodd" clip-rule="evenodd" d="M8.85892 1.01236C11.3895 2.76887 11.9889 6.20425 10.1968 8.6852L13.6343 12.0131C13.6493 12.0269 13.663 12.0403 13.6771 12.055C14.1237 12.5163 14.1048 13.2453 13.6343 13.6831C13.1638 14.1213 12.4202 14.1028 11.9733 13.6416L8.4702 10.244C6.5651 11.347 4.17709 11.2505 2.37089 9.99681C-0.16011 8.2403 -0.759038 4.80534 1.03261 2.32439C2.82426 -0.15697 6.32835 -0.744153 8.85892 1.01236ZM1.98901 5.51298C1.9903 7.47347 3.61156 9.06168 5.61127 9.06126H5.61384C7.6144 9.0579 9.23352 7.46592 9.2301 5.505C9.22624 3.54703 7.60584 1.96134 5.6087 1.96218C3.60856 1.96302 1.98858 3.55248 1.98901 5.51298Z" fill="black"/>
</svg>
