<svg width="200" height="28" viewBox="0 0 200 28" fill="none" xmlns="http://www.w3.org/2000/svg">
<mask id="mask0_3545_34" style="mask-type:luminance" maskUnits="userSpaceOnUse" x="0" y="0" width="15" height="21">
<path fill-rule="evenodd" clip-rule="evenodd" d="M0 0H15V21H0V0Z" fill="white"/>
</mask>
<g mask="url(#mask0_3545_34)">
<path fill-rule="evenodd" clip-rule="evenodd" d="M12.2058 0.0183923C12.7594 0.0670515 13.6281 0.338732 14.2826 0.910817C14.9779 1.58427 15.1364 2.60612 14.8928 3.53504C14.676 4.36258 14.4334 4.79275 13.5867 5.36483C12.7309 5.94063 11.6962 5.89197 11.6962 5.89197V9.47755L13.4451 10.8893L11.6959 12.2967L11.6962 17.1813C11.6962 17.1813 13.4485 16.1794 14.5354 13.936C14.5354 13.936 14.5801 13.814 14.6824 13.5828C14.779 14.1836 14.7238 15.4005 14.0421 16.962C13.5285 18.1382 12.5944 19.2699 11.4228 19.915C9.3466 21.0632 7.78979 21.1727 6.12051 20.8277C4.16594 20.4262 2.39095 19.3307 1.17939 17.4202C0.327972 16.0776 -0.0531828 14.5121 -0.018286 12.8283C0.0501524 9.52216 2.51597 6.67086 5.36226 5.60779C5.70886 5.47837 5.84675 5.39321 6.33836 5.34827C6.1117 5.5027 5.8498 5.70139 5.52828 5.91225C4.61181 6.51271 3.82646 7.70926 3.49139 8.63007L9.01593 6.17176V13.8755L4.56065 16.102C5.06852 16.8038 6.61075 17.8669 7.93006 18.0166C10.1746 18.2643 11.4916 17.2867 11.4916 17.2867L11.4912 12.2967L9.75181 10.8893L11.4922 9.48194V5.89197C10.5436 5.78249 9.39098 5.47026 8.7171 5.30367C7.72644 5.06037 4.42276 4.13551 3.90337 4.05846C3.38466 3.98142 2.74432 4.00575 2.35707 4.35076C1.96948 4.69948 1.7296 5.31178 1.8946 5.86359C1.98777 6.17582 2.20325 6.35829 2.36622 6.53671C2.36622 6.53671 2.17547 6.52049 1.82989 6.31369C1.20615 5.94063 0.731826 5.2104 0.674568 4.30987C0.601387 3.12954 1.08859 2.06681 2.06468 1.35314C2.91271 0.809443 3.87186 0.460381 4.98721 0.618861C6.61414 0.849993 8.8018 1.76675 10.7503 2.23306C11.5051 2.41587 12.0896 2.4767 12.6201 2.16819C12.8674 1.98977 13.3021 1.53122 12.9467 0.922982C12.532 0.208974 11.7369 0.225194 11.0633 0.099491C11.643 -0.0221571 11.7701 -0.0221571 12.2058 0.0183923ZM5.63669 15.3352V7.89579L3.39347 8.89364C3.39279 8.89364 2.82157 10.1713 2.92152 12.0251C3.00046 13.4734 3.81223 15.2058 4.43597 15.9317L5.63669 15.3352Z" fill="#1A1919"/>
</g>
<path fill-rule="evenodd" clip-rule="evenodd" d="M33.7489 7C33.7489 7 31.9953 8.08481 30.8159 8.80324C29.6368 9.51772 28.0548 10.3053 28.0548 10.3053V17.8363L27 18.702L27.1397 18.8691L28.1689 18.022L31.3943 21L37 16.4639L36.8673 16.3001L33.7693 18.7831L31.223 16.3478L31.2234 15.4397L36.338 11.5963L33.7489 7ZM33.8233 13.2188L31.223 15.1644V8.69139L33.8233 13.2188Z" fill="#1A1919"/>
<path fill-rule="evenodd" clip-rule="evenodd" d="M19.5876 23.8743C20.3274 24.0525 21.6324 24.1523 23.2058 23.3806C24.9478 22.5271 25.8238 20.7159 25.8122 18.8594L25.8859 16.2275L25.8863 10.4785L27 9.64572L26.8702 9.48379L25.7741 10.2921L23.2446 7.54031L19.9997 10.2672V1L15.9451 4.06697C16.1254 4.17883 16.7001 4.28276 16.717 5.0741V18.0556L15 19.3031L15.1175 19.4771L15.9465 18.8715L18.2555 20.9728L21.8903 18.1426L21.7583 17.9807L20.9039 18.6436L19.9997 17.7649L20.0085 10.5327L21.0676 9.64952L22.6466 11.5688C22.6466 11.5688 22.6435 16.2523 22.6477 17.8067C22.636 19.4643 22.6304 21.5324 21.7403 22.5313C20.8506 23.5346 20.4939 23.6133 19.5876 23.8743Z" fill="#1A1919"/>
<path fill-rule="evenodd" clip-rule="evenodd" d="M44.6896 22.9385C43.3541 22.7801 42.7931 21.9374 42.8083 21.2727C42.8181 20.8466 43.1896 20.012 44.0017 19.8986C44.8132 19.7811 45.6429 20.1781 46.3435 21.0333L49.4282 17.487L49.2796 17.3492L48.4509 18.3138C47.6092 17.3168 46.4148 16.6885 45.225 16.5065V5.70101L53.2375 20.8875C53.2375 20.8875 53.3144 21.0617 53.6438 21.0617C53.9274 21.0617 53.8592 20.8223 53.8592 20.8223L53.8579 5.53895C54.5088 5.51059 55.503 5.13786 55.9855 4.62333C57.5284 2.97372 56.8983 1.17421 56.7289 1C56.6345 1.78631 56.0533 2.57668 55.0835 2.58039C53.8109 2.58445 53.0351 1.60771 53.0351 1.60771L49.9526 5.26345L50.0996 5.4012L50.9828 4.35154C52.0613 5.385 52.8488 5.48223 53.6633 5.53895L53.6626 14.4069L47.7192 3.17224C47.1816 2.24413 46.3616 1.42945 45.0774 1.4173C43.601 1.40919 42.5442 2.76271 42.418 3.92986C42.2752 5.24725 42.4332 5.55111 42.4332 5.55111C42.4332 5.55111 42.6506 4.08415 43.5231 4.0963C44.3067 4.10846 44.7146 4.85797 45.029 5.42146V8.67577C44.2207 8.73249 42.1165 8.83006 41.988 11.1076C41.9786 11.9547 42.4842 12.8423 42.9271 13.1421C43.4965 13.5311 43.9407 13.523 43.9407 13.523C43.9407 13.523 43.2584 13.1462 43.4628 12.4004C43.6455 11.7319 44.9816 11.6225 45.03 11.9021L45.0297 16.494C44.3869 16.4859 42.3281 16.5592 41.3995 18.3951C40.8397 19.5056 40.8725 20.746 41.4708 21.6208C41.9585 22.3345 42.9621 23.2464 44.6896 22.9385Z" fill="#1A1919"/>
<path fill-rule="evenodd" clip-rule="evenodd" d="M61.749 7C61.749 7 59.9951 8.08481 58.8157 8.80324C57.6364 9.51772 56.0551 10.3053 56.0551 10.3053V17.8363L55 18.702L55.14 18.8691L56.1688 18.022L59.3942 21L65 16.4639L64.867 16.3001L61.7694 18.7831L59.2229 16.3478L59.2232 15.4397L64.338 11.5963L61.749 7ZM61.8238 13.2188L59.2229 15.1644V8.69139L61.8238 13.2188Z" fill="#1A1919"/>
<path fill-rule="evenodd" clip-rule="evenodd" d="M69.7799 20.9839L67.219 18.7592L66.0943 19.6131L65.9798 19.445L67.1242 18.5709V12.3534C67.1791 9.79299 64.8803 10.4288 65.0049 7.71253C65.0598 6.51847 66.1656 5.61532 66.7236 5.31621C67.3211 5 67.9677 5 67.9677 5C67.9677 5 66.9195 5.68506 67.1739 6.66991C67.566 8.18838 70.0497 8.32375 70.0965 10.3468V17.4011L71.9306 18.9363L72.4126 18.5421V10.905L71.4236 9.87914L73.9697 7.52349L76.2954 9.67813L75.4081 10.6835V17.4506L77.5863 19.3301L77.9735 19.071V10.9255L76.9829 9.95708L79.5339 7.51973L81.9188 9.57968L82.8711 8.69738L83 8.85326L80.8558 10.823V17.4626L75.3695 21L72.5634 18.6772L69.7799 20.9839Z" fill="#1A1919"/>
<path fill-rule="evenodd" clip-rule="evenodd" d="M186.749 7C186.749 7 184.995 8.08481 183.816 8.80324C182.637 9.51772 181.055 10.3053 181.055 10.3053V17.8363L180 18.702L180.141 18.8691L181.169 18.022L184.395 21L190 16.4639L189.868 16.3001L186.77 18.7831L184.223 16.3478V15.4397L189.338 11.5963L186.749 7ZM186.824 13.2188L184.223 15.1644V8.69139L186.824 13.2188Z" fill="#1A1919"/>
<path fill-rule="evenodd" clip-rule="evenodd" d="M161 10.1455L161.128 10.3098L162.114 9.37532L163.577 11.1967V17.4523L162.867 18.1663L165.147 21L167.487 18.4647L166.525 17.3702V9.80346L167.107 9.29315L168.725 11.3693V17.608L168.117 18.2747L170.264 20.9312L172.56 18.4041L171.716 17.4307L171.694 9.83373L172.315 9.28018L174.001 11.3221V17.5262L173.447 18.136L175.817 20.9784L179 17.7468L178.865 17.5868L178.092 18.3695L176.907 16.9247V9.84238L178.051 8.88627L177.932 8.71329L176.786 9.6694L174.621 7L171.524 9.69102L169.355 7.0955L166.364 9.6694L164.176 7.10848L161 10.1455Z" fill="#1A1919"/>
<path fill-rule="evenodd" clip-rule="evenodd" d="M154 9.90673L154.136 10.0724L155.015 9.27593L156.391 10.9816V18.1756L155.421 19.0634L155.556 19.2291L156.575 18.3191L158.793 21L162 18.0019L161.865 17.8362L160.92 18.7067L159.595 17.105V10.0724L160.713 9.05842L160.578 8.89311L159.516 9.85017L157.181 7L154 9.90673Z" fill="#1A1919"/>
<mask id="mask1_3545_34" style="mask-type:luminance" maskUnits="userSpaceOnUse" x="140" y="0" width="60" height="22">
<path fill-rule="evenodd" clip-rule="evenodd" d="M140 0H200V22H140V0Z" fill="white"/>
</mask>
<g mask="url(#mask1_3545_34)">
<path fill-rule="evenodd" clip-rule="evenodd" d="M155.616 4.8423L158.011 2.65088L159.959 4.80936L157.553 6.99254L155.616 4.8423Z" fill="#1A1919"/>
<path fill-rule="evenodd" clip-rule="evenodd" d="M152.394 0.0187689C152.956 0.068184 153.836 0.344085 154.5 0.925055C155.205 1.60897 155.365 2.64669 155.118 3.59004C154.898 4.43043 154.653 4.86728 153.793 5.44825C152.927 6.03299 151.878 5.98358 151.878 5.98358V9.62485L153.651 11.0586L151.878 12.4878V17.4482C151.878 17.4482 153.654 16.4307 154.756 14.1525C154.756 14.1525 154.802 14.0286 154.904 13.7939C155.002 14.404 154.947 15.6398 154.256 17.2255C153.735 18.42 152.788 19.5693 151.6 20.2244C149.496 21.3904 147.918 21.5016 146.226 21.1513C144.244 20.7436 142.445 19.6311 141.217 17.6908C140.353 16.3274 139.966 14.7376 140.002 13.0276C140.071 9.67015 142.571 6.77456 145.457 5.69498C145.808 5.56355 145.947 5.47707 146.446 5.43143C146.216 5.58826 145.951 5.79003 145.625 6.00417C144.696 6.61396 143.9 7.82909 143.56 8.7642L149.16 6.26771V14.0911L144.644 16.3522C145.159 17.0649 146.722 18.1445 148.061 18.2965C150.335 18.548 151.67 17.5553 151.67 17.5553V12.4878L149.907 11.0586L151.67 9.62931V5.98358C150.709 5.87239 149.541 5.55531 148.858 5.38614C147.853 5.13906 144.504 4.19983 143.978 4.12159C143.452 4.04335 142.802 4.06806 142.41 4.41842C142.017 4.77256 141.774 5.39437 141.941 5.95475C142.036 6.27183 142.253 6.45714 142.419 6.63833C142.419 6.63833 142.225 6.62185 141.875 6.41184C141.243 6.03299 140.762 5.29142 140.704 4.3769C140.63 3.17824 141.124 2.09901 142.113 1.37425C142.973 0.822107 143.945 0.467622 145.076 0.628564C146.725 0.863286 148.943 1.79428 150.919 2.26784C151.684 2.45349 152.277 2.51526 152.814 2.20195C153.065 2.02076 153.506 1.5551 153.145 0.937408C152.725 0.212311 151.919 0.228783 151.236 0.101127C151.824 -0.0224103 151.953 -0.0224103 152.394 0.0187689ZM145.735 15.5735V8.01852L143.461 9.03187C143.461 9.03187 142.881 10.3294 142.982 12.2119C143.062 13.6827 143.885 15.4421 144.518 16.1792L145.735 15.5735Z" fill="#1A1919"/>
<path fill-rule="evenodd" clip-rule="evenodd" d="M193.345 21.9836C192.982 22.09 191.402 21.7073 191.023 20.0718C190.654 18.4775 191.761 17.3983 193.435 15.7014L191.46 13.8967V10.4527C191.46 10.4527 192.911 9.72797 194.049 9.01935C195.187 8.3066 196.351 7.53621 196.351 7.53621C196.351 7.53621 197.199 8.60756 198.159 8.52108C199.661 8.38896 199.591 7.20678 199.547 6.92676C199.804 7.38385 200.49 8.74345 197.851 11.7832L200 13.5175V17.9916C200 17.9916 197.503 19.2891 195.142 21.0111C195.142 21.0111 193.824 19.3636 192.679 20.1504C191.906 20.6813 192.26 21.5793 193.345 21.9836ZM191.488 18.5352C191.488 18.5352 192.622 16.6612 194.571 17.0647C196.441 17.4518 197.089 19.425 197.089 19.425V14.8816L195.785 13.7484C194.353 15.1866 191.804 17.2662 191.488 18.5352ZM194.38 9.04406V12.6239L195.573 13.662C195.573 13.662 198.164 11.5896 199.105 9.66998C199.105 9.66998 197.941 11.2478 196.373 10.766C195.061 10.3666 194.38 9.04406 194.38 9.04406Z" fill="#1A1919"/>
</g>
<path fill-rule="evenodd" clip-rule="evenodd" d="M112.879 10.1509L113.859 9.22652L114 9.38915L113.045 10.2968V17.6907C113.045 17.6907 111.232 18.6754 109.966 19.4076C108.701 20.1398 107.35 21 107.35 21L104.022 18.1272L103.142 18.9108L103 18.7478L103.925 17.9218V9.97119H103.937C103.937 9.97119 105.507 9.24328 106.831 8.47721C108.015 7.7921 109.34 7 109.34 7L112.879 10.1509ZM107.082 16.6672L109.894 19.2746V11.294L107.082 8.627V16.6672Z" fill="#1A1919"/>
<path fill-rule="evenodd" clip-rule="evenodd" d="M119.252 9.34983L121.354 7.11659C121.354 7.11659 121.643 7.38 121.913 7.51819C122.067 7.59591 122.703 7.93741 123.287 7.60455C123.604 7.42318 123.649 7.37568 123.996 7.03419C124.067 8.77083 123.265 9.99324 122.265 10.4988C121.855 10.7061 120.66 11.1034 119.409 9.51824V17.5444L120.739 18.7671L121.85 17.8121L121.978 17.9809L118.5 21L115.853 18.4951L114.901 19.4278L114.745 19.2551L116.195 17.8945L116.207 10.9652L115.095 9.43187L114.138 10.3088L114 10.1491L117.37 7L119.252 9.34983Z" fill="#1A1919"/>
<path fill-rule="evenodd" clip-rule="evenodd" d="M127 12.822L131.028 7.0128C131.028 7.0128 131.559 7.63611 132.484 7.87931C133.742 8.20394 134.84 7 134.84 7C134.63 8.55382 133.836 10.3164 132.196 10.5855C130.751 10.8245 129.407 9.71047 129.407 9.71047L129.145 10.1115L134.737 18.4862L135.856 17.5133L136 17.6751L132.163 21L127 12.822Z" fill="#1A1919"/>
<path fill-rule="evenodd" clip-rule="evenodd" d="M124.663 5.79128C124.663 4.59651 124.149 3.86116 123.476 3.91363L127.838 1V17.4925H127.839L128.99 18.6467L129.863 17.9272L130 18.082L126.485 21L124.104 18.8739L123.151 19.6708L123 19.5161L124.663 18.1388V5.79128Z" fill="#1A1919"/>
<path fill-rule="evenodd" clip-rule="evenodd" d="M89.8435 5.65108C89.8432 4.54441 89.4106 3.92665 88.7099 3.91016C87.7016 3.88594 87.4626 5.3644 87.4626 5.3644C87.4626 5.3644 87.279 4.22544 88.1964 3.19145C88.7122 2.61373 89.6745 1.80182 91.1792 2.17766C92.7331 2.56931 93.1745 3.82133 93.1745 4.92799V20.1756C93.1745 20.1756 93.7615 20.2487 94.1643 20.3419C94.6316 20.4425 95.0742 20.572 95.0742 20.572V2.18573H95.2675V4.66554L98.4534 2L100.788 4.1568L101.876 3.17934L102 3.33277L100.862 4.35061V18.5283C100.806 19.4529 100.662 20.394 99.8218 20.9354C97.947 22.0905 95.6852 20.7581 93.6709 20.4549C92.1752 20.2244 89.8277 19.93 89.2384 21.3553C89.046 21.824 89.0593 22.5468 89.738 23.0192C91.0992 23.965 97.1608 21.4324 99.2399 22.4378C101.135 23.3543 101.128 24.8048 100.836 25.8025C100.343 27.6726 98.0707 28 98.0707 28C98.0707 28 99.182 27.3291 98.8653 26.2184C98.7047 25.6571 98.3378 25.4993 97.1482 25.6369C94.55 25.9438 91.4444 27.252 89.3575 26.3439C88.2819 25.8792 87.5212 24.4815 87.5951 23.1087C87.6485 21.1332 89.8435 20.3536 89.8435 20.3536L89.8429 13.0468C89.7801 12.7557 88.6089 12.8324 88.3531 13.3698C87.9636 14.182 88.8368 14.5535 88.8368 14.5535C88.8368 14.5535 88.1128 14.6666 87.506 13.9394C87.2107 13.5838 86.5936 12.3398 87.3959 11.1888C88.0555 10.2396 88.8462 10.074 89.8435 9.96097V5.65108ZM95.2675 20.6285C95.2675 20.6285 96.192 20.8829 96.8658 20.3092C97.6148 19.6669 97.5361 18.7668 97.5361 18.7668V13.0871C97.5361 13.0871 97.1019 12.5054 96.4118 12.5054C95.7221 12.5054 95.2675 13.1073 95.2675 13.1073V20.6285ZM97.5361 5.71972L96.0058 4.32234L95.2675 4.92799V10.1911C95.2675 10.1911 95.7221 10.7887 96.4118 10.7887C97.1019 10.7887 97.5361 10.2153 97.5361 10.2153V5.71972ZM97.5361 10.5303C97.5361 10.5303 97.098 11.0474 96.4083 11.0474C95.7186 11.0474 95.2675 10.5262 95.2675 10.5262V12.7722C95.2675 12.7722 95.7186 12.251 96.4083 12.251C97.098 12.251 97.5361 12.7436 97.5361 12.7436V10.5303Z" fill="#1A1919"/>
</svg>
